<svg version="1.1" xmlns="http://www.w3.org/2000/svg" xmlns:xlink="http://www.w3.org/1999/xlink" width="972" height="476"><defs/><g><text fill="#eeeeee" stroke="none" font-family="Arial" font-size="24px" font-style="normal" font-weight="normal" text-decoration="none" x="0" y="0"></text><text fill="#eeeeee" stroke="none" font-family="Arial" font-size="24px" font-style="normal" font-weight="normal" text-decoration="none" x="0" y="30"></text><text fill="#eeeeee" stroke="none" font-family="Arial" font-size="24px" font-style="normal" font-weight="normal" text-decoration="none" x="0" y="60"></text><text fill="#eeeeee" stroke="none" font-family="Arial" font-size="24px" font-style="normal" font-weight="normal" text-decoration="none" x="0" y="90"></text><text fill="#eeeeee" stroke="none" font-family="Arial" font-size="24px" font-style="normal" font-weight="normal" text-decoration="none" x="0" y="120"></text><text fill="#eeeeee" stroke="none" font-family="Arial" font-size="24px" font-style="normal" font-weight="normal" text-decoration="none" x="0" y="150"></text><text fill="#eeeeee" stroke="none" font-family="Arial" font-size="24px" font-style="normal" font-weight="normal" text-decoration="none" x="0" y="180"></text><text fill="#eeeeee" stroke="none" font-family="Arial" font-size="24px" font-style="normal" font-weight="normal" text-decoration="none" x="0" y="210"></text><text fill="#eeeeee" stroke="none" font-family="Arial" font-size="24px" font-style="normal" font-weight="normal" text-decoration="none" x="0" y="240"></text><text fill="#eeeeee" stroke="none" font-family="Arial" font-size="24px" font-style="normal" font-weight="normal" text-decoration="none" x="0" y="270"></text><text fill="#eeeeee" stroke="none" font-family="Arial" font-size="24px" font-style="normal" font-weight="normal" text-decoration="none" x="0" y="300"></text><text fill="#eeeeee" stroke="none" font-family="Arial" font-size="24px" font-style="normal" font-weight="normal" text-decoration="none" x="0" y="330"></text><text fill="#eeeeee" stroke="none" font-family="Arial" font-size="24px" font-style="normal" font-weight="normal" text-decoration="none" x="0" y="360"></text><text fill="#eeeeee" stroke="none" font-family="Arial" font-size="24px" font-style="normal" font-weight="normal" text-decoration="none" x="0" y="390"></text><text fill="#eeeeee" stroke="none" font-family="Arial" font-size="24px" font-style="normal" font-weight="normal" text-decoration="none" x="0" y="420"></text><text fill="#eeeeee" stroke="none" font-family="Arial" font-size="24px" font-style="normal" font-weight="normal" text-decoration="none" x="0" y="450"></text><text fill="#eeeeee" stroke="none" font-family="Arial" font-size="24px" font-style="normal" font-weight="normal" text-decoration="none" x="200" y="0"></text><text fill="#eeeeee" stroke="none" font-family="Arial" font-size="24px" font-style="normal" font-weight="normal" text-decoration="none" x="200" y="30"></text><text fill="#eeeeee" stroke="none" font-family="Arial" font-size="24px" font-style="normal" font-weight="normal" text-decoration="none" x="200" y="60"></text><text fill="#eeeeee" stroke="none" font-family="Arial" font-size="24px" font-style="normal" font-weight="normal" text-decoration="none" x="200" y="90"></text><text fill="#eeeeee" stroke="none" font-family="Arial" font-size="24px" font-style="normal" font-weight="normal" text-decoration="none" x="200" y="120"></text><text fill="#eeeeee" stroke="none" font-family="Arial" font-size="24px" font-style="normal" font-weight="normal" text-decoration="none" x="200" y="150"></text><text fill="#eeeeee" stroke="none" font-family="Arial" font-size="24px" font-style="normal" font-weight="normal" text-decoration="none" x="200" y="180"></text><text fill="#eeeeee" stroke="none" font-family="Arial" font-size="24px" font-style="normal" font-weight="normal" text-decoration="none" x="200" y="210"></text><text fill="#eeeeee" stroke="none" font-family="Arial" font-size="24px" font-style="normal" font-weight="normal" text-decoration="none" x="200" y="240"></text><text fill="#eeeeee" stroke="none" font-family="Arial" font-size="24px" font-style="normal" font-weight="normal" text-decoration="none" x="200" y="270"></text><text fill="#eeeeee" stroke="none" font-family="Arial" font-size="24px" font-style="normal" font-weight="normal" text-decoration="none" x="200" y="300"></text><text fill="#eeeeee" stroke="none" font-family="Arial" font-size="24px" font-style="normal" font-weight="normal" text-decoration="none" x="200" y="330"></text><text fill="#eeeeee" stroke="none" font-family="Arial" font-size="24px" font-style="normal" font-weight="normal" text-decoration="none" x="200" y="360"></text><text fill="#eeeeee" stroke="none" font-family="Arial" font-size="24px" font-style="normal" font-weight="normal" text-decoration="none" x="200" y="390"></text><text fill="#eeeeee" stroke="none" font-family="Arial" font-size="24px" font-style="normal" font-weight="normal" text-decoration="none" x="200" y="420"></text><text fill="#eeeeee" stroke="none" font-family="Arial" font-size="24px" font-style="normal" font-weight="normal" text-decoration="none" x="200" y="450"></text><text fill="#eeeeee" stroke="none" font-family="Arial" font-size="24px" font-style="normal" font-weight="normal" text-decoration="none" x="400" y="0"></text><text fill="#eeeeee" stroke="none" font-family="Arial" font-size="24px" font-style="normal" font-weight="normal" text-decoration="none" x="400" y="30"></text><text fill="#eeeeee" stroke="none" font-family="Arial" font-size="24px" font-style="normal" font-weight="normal" text-decoration="none" x="400" y="60"></text><text fill="#eeeeee" stroke="none" font-family="Arial" font-size="24px" font-style="normal" font-weight="normal" text-decoration="none" x="400" y="90"></text><text fill="#eeeeee" stroke="none" font-family="Arial" font-size="24px" font-style="normal" font-weight="normal" text-decoration="none" x="400" y="120"></text><text fill="#eeeeee" stroke="none" font-family="Arial" font-size="24px" font-style="normal" font-weight="normal" text-decoration="none" x="400" y="150"></text><text fill="#eeeeee" stroke="none" font-family="Arial" font-size="24px" font-style="normal" font-weight="normal" text-decoration="none" x="400" y="180"></text><text fill="#eeeeee" stroke="none" font-family="Arial" font-size="24px" font-style="normal" font-weight="normal" text-decoration="none" x="400" y="210"></text><text fill="#eeeeee" stroke="none" font-family="Arial" font-size="24px" font-style="normal" font-weight="normal" text-decoration="none" x="400" y="240"></text><text fill="#eeeeee" stroke="none" font-family="Arial" font-size="24px" font-style="normal" font-weight="normal" text-decoration="none" x="400" y="270"></text><text fill="#eeeeee" stroke="none" font-family="Arial" font-size="24px" font-style="normal" font-weight="normal" text-decoration="none" x="400" y="300"></text><text fill="#eeeeee" stroke="none" font-family="Arial" font-size="24px" font-style="normal" font-weight="normal" text-decoration="none" x="400" y="330"></text><text fill="#eeeeee" stroke="none" font-family="Arial" font-size="24px" font-style="normal" font-weight="normal" text-decoration="none" x="400" y="360"></text><text fill="#eeeeee" stroke="none" font-family="Arial" font-size="24px" font-style="normal" font-weight="normal" text-decoration="none" x="400" y="390"></text><text fill="#eeeeee" stroke="none" font-family="Arial" font-size="24px" font-style="normal" font-weight="normal" text-decoration="none" x="400" y="420"></text><text fill="#eeeeee" stroke="none" font-family="Arial" font-size="24px" font-style="normal" font-weight="normal" text-decoration="none" x="400" y="450"></text><text fill="#eeeeee" stroke="none" font-family="Arial" font-size="24px" font-style="normal" font-weight="normal" text-decoration="none" x="600" y="0"></text><text fill="#eeeeee" stroke="none" font-family="Arial" font-size="24px" font-style="normal" font-weight="normal" text-decoration="none" x="600" y="30"></text><text fill="#eeeeee" stroke="none" font-family="Arial" font-size="24px" font-style="normal" font-weight="normal" text-decoration="none" x="600" y="60"></text><text fill="#eeeeee" stroke="none" font-family="Arial" font-size="24px" font-style="normal" font-weight="normal" text-decoration="none" x="600" y="90"></text><text fill="#eeeeee" stroke="none" font-family="Arial" font-size="24px" font-style="normal" font-weight="normal" text-decoration="none" x="600" y="120"></text><text fill="#eeeeee" stroke="none" font-family="Arial" font-size="24px" font-style="normal" font-weight="normal" text-decoration="none" x="600" y="150"></text><text fill="#eeeeee" stroke="none" font-family="Arial" font-size="24px" font-style="normal" font-weight="normal" text-decoration="none" x="600" y="180"></text><text fill="#eeeeee" stroke="none" font-family="Arial" font-size="24px" font-style="normal" font-weight="normal" text-decoration="none" x="600" y="210"></text><text fill="#eeeeee" stroke="none" font-family="Arial" font-size="24px" font-style="normal" font-weight="normal" text-decoration="none" x="600" y="240"></text><text fill="#eeeeee" stroke="none" font-family="Arial" font-size="24px" font-style="normal" font-weight="normal" text-decoration="none" x="600" y="270"></text><text fill="#eeeeee" stroke="none" font-family="Arial" font-size="24px" font-style="normal" font-weight="normal" text-decoration="none" x="600" y="300"></text><text fill="#eeeeee" stroke="none" font-family="Arial" font-size="24px" font-style="normal" font-weight="normal" text-decoration="none" x="600" y="330"></text><text fill="#eeeeee" stroke="none" font-family="Arial" font-size="24px" font-style="normal" font-weight="normal" text-decoration="none" x="600" y="360"></text><text fill="#eeeeee" stroke="none" font-family="Arial" font-size="24px" font-style="normal" font-weight="normal" text-decoration="none" x="600" y="390"></text><text fill="#eeeeee" stroke="none" font-family="Arial" font-size="24px" font-style="normal" font-weight="normal" text-decoration="none" x="600" y="420"></text><text fill="#eeeeee" stroke="none" font-family="Arial" font-size="24px" font-style="normal" font-weight="normal" text-decoration="none" x="600" y="450"></text><text fill="#eeeeee" stroke="none" font-family="Arial" font-size="24px" font-style="normal" font-weight="normal" text-decoration="none" x="800" y="0"></text><text fill="#eeeeee" stroke="none" font-family="Arial" font-size="24px" font-style="normal" font-weight="normal" text-decoration="none" x="800" y="30"></text><text fill="#eeeeee" stroke="none" font-family="Arial" font-size="24px" font-style="normal" font-weight="normal" text-decoration="none" x="800" y="60"></text><text fill="#eeeeee" stroke="none" font-family="Arial" font-size="24px" font-style="normal" font-weight="normal" text-decoration="none" x="800" y="90"></text><text fill="#eeeeee" stroke="none" font-family="Arial" font-size="24px" font-style="normal" font-weight="normal" text-decoration="none" x="800" y="120"></text><text fill="#eeeeee" stroke="none" font-family="Arial" font-size="24px" font-style="normal" font-weight="normal" text-decoration="none" x="800" y="150"></text><text fill="#eeeeee" stroke="none" font-family="Arial" font-size="24px" font-style="normal" font-weight="normal" text-decoration="none" x="800" y="180"></text><text fill="#eeeeee" stroke="none" font-family="Arial" font-size="24px" font-style="normal" font-weight="normal" text-decoration="none" x="800" y="210"></text><text fill="#eeeeee" stroke="none" font-family="Arial" font-size="24px" font-style="normal" font-weight="normal" text-decoration="none" x="800" y="240"></text><text fill="#eeeeee" stroke="none" font-family="Arial" font-size="24px" font-style="normal" font-weight="normal" text-decoration="none" x="800" y="270"></text><text fill="#eeeeee" stroke="none" font-family="Arial" font-size="24px" font-style="normal" font-weight="normal" text-decoration="none" x="800" y="300"></text><text fill="#eeeeee" stroke="none" font-family="Arial" font-size="24px" font-style="normal" font-weight="normal" text-decoration="none" x="800" y="330"></text><text fill="#eeeeee" stroke="none" font-family="Arial" font-size="24px" font-style="normal" font-weight="normal" text-decoration="none" x="800" y="360"></text><text fill="#eeeeee" stroke="none" font-family="Arial" font-size="24px" font-style="normal" font-weight="normal" text-decoration="none" x="800" y="390"></text><text fill="#eeeeee" stroke="none" font-family="Arial" font-size="24px" font-style="normal" font-weight="normal" text-decoration="none" x="800" y="420"></text><text fill="#eeeeee" stroke="none" font-family="Arial" font-size="24px" font-style="normal" font-weight="normal" text-decoration="none" x="800" y="450"></text><g transform="translate(-22,10) scale(1,1)"><path fill="none" stroke="#000000" d="M 32 0 L 984 0 L 984 456 L 32 456 L 32 0" stroke-miterlimit="10"/></g><g transform="translate(-22,10) scale(1,1)"><path fill="#ffffff" stroke="none" d="M 32 0 L 32 22 L 224.337890625 22 L 235.337890625 11 L 235.337890625 0 L 32 0"/></g><g transform="translate(-22,10) scale(1,1)"><path fill="none" stroke="#000000" d="M 32 0 L 32 22 L 224.337890625 22 L 235.337890625 11 L 235.337890625 0 L 32 0 L 32 0" stroke-miterlimit="10"/></g><g transform="translate(-22,10) scale(1,1)"><g><path fill="none" stroke="none"/><text fill="#000000" stroke="none" font-family="Arial" font-size="13px" font-style="normal" font-weight="normal" text-decoration="none" x="56.72998046875" y="17.5">Sebezhetetlenség készítése</text></g></g><g transform="translate(-22,10) scale(1,1)"><g><path fill="none" stroke="none"/><text fill="#000000" stroke="none" font-family="Arial" font-size="13px" font-style="normal" font-weight="bold" text-decoration="none" x="37" y="17.5">sd</text></g></g><g transform="translate(-22,10) scale(1,1)"><rect fill="#C0C0C0" stroke="none" x="63" y="47" width="122.3017578125" height="39" opacity="0.2"/></g><g transform="translate(-22,10) scale(1,1)"><rect fill="#ffffff" stroke="none" x="56" y="40" width="122.3017578125" height="39"/></g><g transform="translate(-22,10) scale(1,1)"><path fill="none" stroke="#000000" d="M 56 40 L 178.3017578125 40 L 178.3017578125 79 L 56 79 L 56 40 Z Z" stroke-miterlimit="10"/></g><g transform="translate(-22,10) scale(1,1)"><g><path fill="none" stroke="none"/><text fill="#000000" stroke="none" font-family="Arial" font-size="13px" font-style="normal" font-weight="bold" text-decoration="none" x="69.457763671875" y="59.5">Aktor1: Skeleton</text></g></g><g transform="translate(-22,10) scale(1,1)"><path fill="none" stroke="#000000" d="M 118.5 80 L 118.5 438" stroke-miterlimit="10" stroke-dasharray="3"/></g><g transform="translate(-22,10) scale(1,1)"><rect fill="#C0C0C0" stroke="none" x="223" y="47" width="71.736328125" height="39" opacity="0.2"/></g><g transform="translate(-22,10) scale(1,1)"><rect fill="#ffffff" stroke="none" x="216" y="40" width="71.736328125" height="39"/></g><g transform="translate(-22,10) scale(1,1)"><path fill="none" stroke="#000000" d="M 216 40 L 287.736328125 40 L 287.736328125 79 L 216 79 L 216 40 Z Z" stroke-miterlimit="10"/></g><g transform="translate(-22,10) scale(1,1)"><g><path fill="none" stroke="none"/><text fill="#000000" stroke="none" font-family="Arial" font-size="13px" font-style="normal" font-weight="bold" text-decoration="none" x="231.2763671875" y="59.5">j: Jatek</text></g></g><g transform="translate(-22,10) scale(1,1)"><path fill="none" stroke="#000000" d="M 252.5 80 L 252.5 313" stroke-miterlimit="10" stroke-dasharray="3"/></g><g transform="translate(-22,10) scale(1,1)"><rect fill="#C0C0C0" stroke="none" x="399" y="99" width="101.11328125" height="39" opacity="0.2"/></g><g transform="translate(-22,10) scale(1,1)"><rect fill="#ffffff" stroke="none" x="392" y="92" width="101.11328125" height="39"/></g><g transform="translate(-22,10) scale(1,1)"><path fill="none" stroke="#000000" d="M 392 92 L 493.11328125 92 L 493.11328125 131 L 392 131 L 392 92 Z Z" stroke-miterlimit="10"/></g><g transform="translate(-22,10) scale(1,1)"><g><path fill="none" stroke="none"/><text fill="#000000" stroke="none" font-family="Arial" font-size="13px" font-style="normal" font-weight="bold" text-decoration="none" x="405.09912109375" y="111.5">v1: Virologus</text></g></g><g transform="translate(-22,10) scale(1,1)"><path fill="none" stroke="#000000" d="M 443.5 132 L 443.5 438" stroke-miterlimit="10" stroke-dasharray="3"/></g><g transform="translate(-22,10) scale(1,1)"><rect fill="#C0C0C0" stroke="none" x="575" y="163" width="118.67724609375" height="39" opacity="0.2"/></g><g transform="translate(-22,10) scale(1,1)"><rect fill="#ffffff" stroke="none" x="568" y="156" width="118.67724609375" height="39"/></g><g transform="translate(-22,10) scale(1,1)"><path fill="none" stroke="#000000" d="M 568 156 L 686.67724609375 156 L 686.67724609375 195 L 568 195 L 568 156 Z Z" stroke-miterlimit="10"/></g><g transform="translate(-22,10) scale(1,1)"><g><path fill="none" stroke="none"/><text fill="#000000" stroke="none" font-family="Arial" font-size="13px" font-style="normal" font-weight="bold" text-decoration="none" x="581.08642578125" y="175.5">g: GenetikaiKod</text></g></g><g transform="translate(-22,10) scale(1,1)"><path fill="none" stroke="#000000" d="M 628.5 196 L 628.5 410" stroke-miterlimit="10" stroke-dasharray="3"/></g><g transform="translate(-22,10) scale(1,1)"><rect fill="#C0C0C0" stroke="none" x="695" y="219" width="112.65966796875" height="39" opacity="0.2"/></g><g transform="translate(-22,10) scale(1,1)"><rect fill="#ffffff" stroke="none" x="688" y="212" width="112.65966796875" height="39"/></g><g transform="translate(-22,10) scale(1,1)"><path fill="none" stroke="#000000" d="M 688 212 L 800.65966796875 212 L 800.65966796875 251 L 688 251 L 688 212 Z Z" stroke-miterlimit="10"/></g><g transform="translate(-22,10) scale(1,1)"><g><path fill="none" stroke="none"/><text fill="#000000" stroke="none" font-family="Arial" font-size="13px" font-style="normal" font-weight="bold" text-decoration="none" x="700.968994140625" y="231.5">a: AnyagTarolo</text></g></g><g transform="translate(-22,10) scale(1,1)"><path fill="none" stroke="#000000" d="M 745.5 252 L 745.5 419" stroke-miterlimit="10" stroke-dasharray="3"/></g><g transform="translate(-22,10) scale(1,1)"><rect fill="#C0C0C0" stroke="none" x="831" y="363" width="143.9853515625" height="39" opacity="0.2"/></g><g transform="translate(-22,10) scale(1,1)"><rect fill="#ffffff" stroke="none" x="824" y="356" width="143.9853515625" height="39"/></g><g transform="translate(-22,10) scale(1,1)"><path fill="none" stroke="#000000" d="M 824 356 L 967.9853515625 356 L 967.9853515625 395 L 824 395 L 824 356 Z Z" stroke-miterlimit="10"/></g><g transform="translate(-22,10) scale(1,1)"><g><path fill="none" stroke="none"/><text fill="#000000" stroke="none" font-family="Arial" font-size="13px" font-style="normal" font-weight="bold" text-decoration="none" x="837.089599609375" y="375.5">s: Sebezhetetlenseg</text></g></g><g transform="translate(-22,10) scale(1,1)"><path fill="none" stroke="#000000" d="M 896.5 396 L 896.5 445" stroke-miterlimit="10" stroke-dasharray="3"/></g><g transform="translate(-22,10) scale(1,1)"><path fill="none" stroke="#000000" d="M 118 112 L 392 112" stroke-miterlimit="10" stroke-dasharray="3"/></g><g transform="translate(-22,10) scale(1,1)"><path fill="none" stroke="#000000" d="M 381.83732514237585 116.20951775601598 L 392 112 L 381.83732514237585 107.79048224398402" stroke-miterlimit="10"/></g><g transform="translate(-22,10) scale(1,1)"><g><path fill="none" stroke="none"/><text fill="#000000" stroke="none" font-family="Arial" font-size="13px" font-style="normal" font-weight="normal" text-decoration="none" x="245.5" y="108.5">1 : </text></g></g><g transform="translate(-22,10) scale(1,1)"><g><path fill="none" stroke="none"/><text fill="#000000" stroke="none" font-family="Arial" font-size="13px" font-style="normal" font-weight="normal" text-decoration="none" x="229.5" y="93.5">«create»</text></g></g><g transform="translate(-22,10) scale(1,1)"><path fill="none" stroke="#000000" d="M 118 176 L 568 176" stroke-miterlimit="10" stroke-dasharray="3"/></g><g transform="translate(-22,10) scale(1,1)"><path fill="none" stroke="#000000" d="M 557.8373251423759 180.209517756016 L 568 176 L 557.8373251423758 171.790482243984" stroke-miterlimit="10"/></g><g transform="translate(-22,10) scale(1,1)"><g><path fill="none" stroke="none"/><text fill="#000000" stroke="none" font-family="Arial" font-size="13px" font-style="normal" font-weight="normal" text-decoration="none" x="333.5" y="172.5">2 : </text></g></g><g transform="translate(-22,10) scale(1,1)"><g><path fill="none" stroke="none"/><text fill="#000000" stroke="none" font-family="Arial" font-size="13px" font-style="normal" font-weight="normal" text-decoration="none" x="317.5" y="157.5">«create»</text></g></g><g transform="translate(-22,10) scale(1,1)"><path fill="none" stroke="#000000" d="M 118 232 L 688 232" stroke-miterlimit="10" stroke-dasharray="3"/></g><g transform="translate(-22,10) scale(1,1)"><path fill="none" stroke="#000000" d="M 677.8373251423759 236.209517756016 L 688 232 L 677.8373251423758 227.790482243984" stroke-miterlimit="10"/></g><g transform="translate(-22,10) scale(1,1)"><g><path fill="none" stroke="none"/><text fill="#000000" stroke="none" font-family="Arial" font-size="13px" font-style="normal" font-weight="normal" text-decoration="none" x="393.5" y="228.5">3 : </text></g></g><g transform="translate(-22,10) scale(1,1)"><g><path fill="none" stroke="none"/><text fill="#000000" stroke="none" font-family="Arial" font-size="13px" font-style="normal" font-weight="normal" text-decoration="none" x="377.5" y="213.5">«create»</text></g></g><g transform="translate(-22,10) scale(1,1)"><path fill="none" stroke="#000000" d="M 118 256 L 245 256" stroke-miterlimit="10"/></g><g transform="translate(-22,10) scale(1,1)"><path fill="#000000" stroke="none" d="M 234.83732514237585 260.209517756016 L 245 256 L 234.83732514237585 251.790482243984"/></g><g transform="translate(-22,10) scale(1,1)"><path fill="none" stroke="#000000" d="M 234.83732514237585 260.209517756016 L 245 256 L 234.83732514237585 251.790482243984 L 234.83732514237585 260.209517756016" stroke-miterlimit="10"/></g><g transform="translate(-22,10) scale(1,1)"><g><path fill="none" stroke="none"/><text fill="#000000" stroke="none" font-family="Arial" font-size="13px" font-style="normal" font-weight="normal" text-decoration="none" x="151.62451171875" y="252.5">4 : Init(v1)</text></g></g><g transform="translate(-22,10) scale(1,1)"><rect fill="#ffffff" stroke="none" x="245" y="256" width="13" height="28"/></g><g transform="translate(-22,10) scale(1,1)"><path fill="none" stroke="#000000" d="M 245 256 L 258 256 L 258 284 L 245 284 L 245 256 Z Z" stroke-miterlimit="10"/></g><g transform="translate(-22,10) scale(1,1)"><path fill="none" stroke="#000000" d="M 245 280 L 118 280" stroke-miterlimit="10" stroke-dasharray="3"/></g><g transform="translate(-22,10) scale(1,1)"><path fill="none" stroke="#000000" d="M 128.16267485762415 275.790482243984 L 118 280 L 128.16267485762415 284.209517756016" stroke-miterlimit="10"/></g><g transform="translate(-22,10) scale(1,1)"><g><path fill="none" stroke="none"/><text fill="#000000" stroke="none" font-family="Arial" font-size="13px" font-style="normal" font-weight="normal" text-decoration="none" x="170.5" y="296.5">5 : </text></g></g><g transform="translate(-22,10) scale(1,1)"><path fill="none" stroke="#000000" d="M 118 312 L 436 312" stroke-miterlimit="10"/></g><g transform="translate(-22,10) scale(1,1)"><path fill="#000000" stroke="none" d="M 425.83732514237585 316.209517756016 L 436 312 L 425.83732514237585 307.790482243984"/></g><g transform="translate(-22,10) scale(1,1)"><path fill="none" stroke="#000000" d="M 425.83732514237585 316.209517756016 L 436 312 L 425.83732514237585 307.790482243984 L 425.83732514237585 316.209517756016" stroke-miterlimit="10"/></g><g transform="translate(-22,10) scale(1,1)"><g><path fill="none" stroke="none"/><text fill="#000000" stroke="none" font-family="Arial" font-size="13px" font-style="normal" font-weight="normal" text-decoration="none" x="214.002197265625" y="308.5">6 : agensKeszitese(g)</text></g></g><g transform="translate(-22,10) scale(1,1)"><rect fill="#ffffff" stroke="none" x="436" y="312" width="13" height="96"/></g><g transform="translate(-22,10) scale(1,1)"><path fill="none" stroke="#000000" d="M 436 312 L 449 312 L 449 408 L 436 408 L 436 312 Z Z" stroke-miterlimit="10"/></g><g transform="translate(-22,10) scale(1,1)"><path fill="none" stroke="#000000" d="M 449 355 L 621 355" stroke-miterlimit="10"/></g><g transform="translate(-22,10) scale(1,1)"><path fill="#000000" stroke="none" d="M 610.8373251423759 359.209517756016 L 621 355 L 610.8373251423758 350.790482243984"/></g><g transform="translate(-22,10) scale(1,1)"><path fill="none" stroke="#000000" d="M 610.8373251423759 359.209517756016 L 621 355 L 610.8373251423758 350.790482243984 L 610.8373251423759 359.209517756016" stroke-miterlimit="10"/></g><g transform="translate(-22,10) scale(1,1)"><g><path fill="none" stroke="none"/><text fill="#000000" stroke="none" font-family="Arial" font-size="13px" font-style="normal" font-weight="normal" text-decoration="none" x="447.096923828125" y="351.5">7 : agensLetrehozasa(v1,v1.a)</text></g></g><g transform="translate(-22,10) scale(1,1)"><rect fill="#ffffff" stroke="none" x="621" y="355" width="13" height="28"/></g><g transform="translate(-22,10) scale(1,1)"><path fill="none" stroke="#000000" d="M 621 355 L 634 355 L 634 383 L 621 383 L 621 355 Z Z" stroke-miterlimit="10"/></g><g transform="translate(-22,10) scale(1,1)"><path fill="none" stroke="#000000" d="M 634 376 L 824 376" stroke-miterlimit="10" stroke-dasharray="3"/></g><g transform="translate(-22,10) scale(1,1)"><path fill="none" stroke="#000000" d="M 813.8373251423759 380.209517756016 L 824 376 L 813.8373251423758 371.790482243984" stroke-miterlimit="10"/></g><g transform="translate(-22,10) scale(1,1)"><g><path fill="none" stroke="none"/><text fill="#000000" stroke="none" font-family="Arial" font-size="13px" font-style="normal" font-weight="normal" text-decoration="none" x="719.5" y="372.5">8 : </text></g></g><g transform="translate(-22,10) scale(1,1)"><g><path fill="none" stroke="none"/><text fill="#000000" stroke="none" font-family="Arial" font-size="13px" font-style="normal" font-weight="normal" text-decoration="none" x="703.5" y="357.5">«create»</text></g></g><g transform="translate(-22,10) scale(1,1)"><path fill="none" stroke="#000000" d="M 621 380 L 449 380" stroke-miterlimit="10" stroke-dasharray="3"/></g><g transform="translate(-22,10) scale(1,1)"><path fill="none" stroke="#000000" d="M 459.16267485762415 375.790482243984 L 449 380 L 459.16267485762415 384.209517756016" stroke-miterlimit="10"/></g><g transform="translate(-22,10) scale(1,1)"><g><path fill="none" stroke="none"/><text fill="#000000" stroke="none" font-family="Arial" font-size="13px" font-style="normal" font-weight="normal" text-decoration="none" x="524.5" y="396.5">9 : </text></g></g><g transform="translate(-22,10) scale(1,1)"><path fill="none" stroke="#000000" d="M 443 408 L 118 408" stroke-miterlimit="10" stroke-dasharray="3"/></g><g transform="translate(-22,10) scale(1,1)"><path fill="none" stroke="#000000" d="M 128.16267485762415 403.790482243984 L 118 408 L 128.16267485762415 412.209517756016" stroke-miterlimit="10"/></g><g transform="translate(-22,10) scale(1,1)"><g><path fill="none" stroke="none"/><text fill="#000000" stroke="none" font-family="Arial" font-size="13px" font-style="normal" font-weight="normal" text-decoration="none" x="266.5" y="424.5">10 : </text></g></g></g></svg>