<svg version="1.1" xmlns="http://www.w3.org/2000/svg" xmlns:xlink="http://www.w3.org/1999/xlink" width="700" height="483"><defs/><g><text fill="#eeeeee" stroke="none" font-family="Arial" font-size="24px" font-style="normal" font-weight="normal" text-decoration="none" x="0" y="0"></text><text fill="#eeeeee" stroke="none" font-family="Arial" font-size="24px" font-style="normal" font-weight="normal" text-decoration="none" x="0" y="30"></text><text fill="#eeeeee" stroke="none" font-family="Arial" font-size="24px" font-style="normal" font-weight="normal" text-decoration="none" x="0" y="60"></text><text fill="#eeeeee" stroke="none" font-family="Arial" font-size="24px" font-style="normal" font-weight="normal" text-decoration="none" x="0" y="90"></text><text fill="#eeeeee" stroke="none" font-family="Arial" font-size="24px" font-style="normal" font-weight="normal" text-decoration="none" x="0" y="120"></text><text fill="#eeeeee" stroke="none" font-family="Arial" font-size="24px" font-style="normal" font-weight="normal" text-decoration="none" x="0" y="150"></text><text fill="#eeeeee" stroke="none" font-family="Arial" font-size="24px" font-style="normal" font-weight="normal" text-decoration="none" x="0" y="180"></text><text fill="#eeeeee" stroke="none" font-family="Arial" font-size="24px" font-style="normal" font-weight="normal" text-decoration="none" x="0" y="210"></text><text fill="#eeeeee" stroke="none" font-family="Arial" font-size="24px" font-style="normal" font-weight="normal" text-decoration="none" x="0" y="240"></text><text fill="#eeeeee" stroke="none" font-family="Arial" font-size="24px" font-style="normal" font-weight="normal" text-decoration="none" x="0" y="270"></text><text fill="#eeeeee" stroke="none" font-family="Arial" font-size="24px" font-style="normal" font-weight="normal" text-decoration="none" x="0" y="300"></text><text fill="#eeeeee" stroke="none" font-family="Arial" font-size="24px" font-style="normal" font-weight="normal" text-decoration="none" x="0" y="330"></text><text fill="#eeeeee" stroke="none" font-family="Arial" font-size="24px" font-style="normal" font-weight="normal" text-decoration="none" x="0" y="360"></text><text fill="#eeeeee" stroke="none" font-family="Arial" font-size="24px" font-style="normal" font-weight="normal" text-decoration="none" x="0" y="390"></text><text fill="#eeeeee" stroke="none" font-family="Arial" font-size="24px" font-style="normal" font-weight="normal" text-decoration="none" x="0" y="420"></text><text fill="#eeeeee" stroke="none" font-family="Arial" font-size="24px" font-style="normal" font-weight="normal" text-decoration="none" x="0" y="450"></text><text fill="#eeeeee" stroke="none" font-family="Arial" font-size="24px" font-style="normal" font-weight="normal" text-decoration="none" x="0" y="480"></text><text fill="#eeeeee" stroke="none" font-family="Arial" font-size="24px" font-style="normal" font-weight="normal" text-decoration="none" x="200" y="0"></text><text fill="#eeeeee" stroke="none" font-family="Arial" font-size="24px" font-style="normal" font-weight="normal" text-decoration="none" x="200" y="30"></text><text fill="#eeeeee" stroke="none" font-family="Arial" font-size="24px" font-style="normal" font-weight="normal" text-decoration="none" x="200" y="60"></text><text fill="#eeeeee" stroke="none" font-family="Arial" font-size="24px" font-style="normal" font-weight="normal" text-decoration="none" x="200" y="90"></text><text fill="#eeeeee" stroke="none" font-family="Arial" font-size="24px" font-style="normal" font-weight="normal" text-decoration="none" x="200" y="120"></text><text fill="#eeeeee" stroke="none" font-family="Arial" font-size="24px" font-style="normal" font-weight="normal" text-decoration="none" x="200" y="150"></text><text fill="#eeeeee" stroke="none" font-family="Arial" font-size="24px" font-style="normal" font-weight="normal" text-decoration="none" x="200" y="180"></text><text fill="#eeeeee" stroke="none" font-family="Arial" font-size="24px" font-style="normal" font-weight="normal" text-decoration="none" x="200" y="210"></text><text fill="#eeeeee" stroke="none" font-family="Arial" font-size="24px" font-style="normal" font-weight="normal" text-decoration="none" x="200" y="240"></text><text fill="#eeeeee" stroke="none" font-family="Arial" font-size="24px" font-style="normal" font-weight="normal" text-decoration="none" x="200" y="270"></text><text fill="#eeeeee" stroke="none" font-family="Arial" font-size="24px" font-style="normal" font-weight="normal" text-decoration="none" x="200" y="300"></text><text fill="#eeeeee" stroke="none" font-family="Arial" font-size="24px" font-style="normal" font-weight="normal" text-decoration="none" x="200" y="330"></text><text fill="#eeeeee" stroke="none" font-family="Arial" font-size="24px" font-style="normal" font-weight="normal" text-decoration="none" x="200" y="360"></text><text fill="#eeeeee" stroke="none" font-family="Arial" font-size="24px" font-style="normal" font-weight="normal" text-decoration="none" x="200" y="390"></text><text fill="#eeeeee" stroke="none" font-family="Arial" font-size="24px" font-style="normal" font-weight="normal" text-decoration="none" x="200" y="420"></text><text fill="#eeeeee" stroke="none" font-family="Arial" font-size="24px" font-style="normal" font-weight="normal" text-decoration="none" x="200" y="450"></text><text fill="#eeeeee" stroke="none" font-family="Arial" font-size="24px" font-style="normal" font-weight="normal" text-decoration="none" x="200" y="480"></text><text fill="#eeeeee" stroke="none" font-family="Arial" font-size="24px" font-style="normal" font-weight="normal" text-decoration="none" x="400" y="0"></text><text fill="#eeeeee" stroke="none" font-family="Arial" font-size="24px" font-style="normal" font-weight="normal" text-decoration="none" x="400" y="30"></text><text fill="#eeeeee" stroke="none" font-family="Arial" font-size="24px" font-style="normal" font-weight="normal" text-decoration="none" x="400" y="60"></text><text fill="#eeeeee" stroke="none" font-family="Arial" font-size="24px" font-style="normal" font-weight="normal" text-decoration="none" x="400" y="90"></text><text fill="#eeeeee" stroke="none" font-family="Arial" font-size="24px" font-style="normal" font-weight="normal" text-decoration="none" x="400" y="120"></text><text fill="#eeeeee" stroke="none" font-family="Arial" font-size="24px" font-style="normal" font-weight="normal" text-decoration="none" x="400" y="150"></text><text fill="#eeeeee" stroke="none" font-family="Arial" font-size="24px" font-style="normal" font-weight="normal" text-decoration="none" x="400" y="180"></text><text fill="#eeeeee" stroke="none" font-family="Arial" font-size="24px" font-style="normal" font-weight="normal" text-decoration="none" x="400" y="210"></text><text fill="#eeeeee" stroke="none" font-family="Arial" font-size="24px" font-style="normal" font-weight="normal" text-decoration="none" x="400" y="240"></text><text fill="#eeeeee" stroke="none" font-family="Arial" font-size="24px" font-style="normal" font-weight="normal" text-decoration="none" x="400" y="270"></text><text fill="#eeeeee" stroke="none" font-family="Arial" font-size="24px" font-style="normal" font-weight="normal" text-decoration="none" x="400" y="300"></text><text fill="#eeeeee" stroke="none" font-family="Arial" font-size="24px" font-style="normal" font-weight="normal" text-decoration="none" x="400" y="330"></text><text fill="#eeeeee" stroke="none" font-family="Arial" font-size="24px" font-style="normal" font-weight="normal" text-decoration="none" x="400" y="360"></text><text fill="#eeeeee" stroke="none" font-family="Arial" font-size="24px" font-style="normal" font-weight="normal" text-decoration="none" x="400" y="390"></text><text fill="#eeeeee" stroke="none" font-family="Arial" font-size="24px" font-style="normal" font-weight="normal" text-decoration="none" x="400" y="420"></text><text fill="#eeeeee" stroke="none" font-family="Arial" font-size="24px" font-style="normal" font-weight="normal" text-decoration="none" x="400" y="450"></text><text fill="#eeeeee" stroke="none" font-family="Arial" font-size="24px" font-style="normal" font-weight="normal" text-decoration="none" x="400" y="480"></text><text fill="#eeeeee" stroke="none" font-family="Arial" font-size="24px" font-style="normal" font-weight="normal" text-decoration="none" x="600" y="0"></text><text fill="#eeeeee" stroke="none" font-family="Arial" font-size="24px" font-style="normal" font-weight="normal" text-decoration="none" x="600" y="30"></text><text fill="#eeeeee" stroke="none" font-family="Arial" font-size="24px" font-style="normal" font-weight="normal" text-decoration="none" x="600" y="60"></text><text fill="#eeeeee" stroke="none" font-family="Arial" font-size="24px" font-style="normal" font-weight="normal" text-decoration="none" x="600" y="90"></text><text fill="#eeeeee" stroke="none" font-family="Arial" font-size="24px" font-style="normal" font-weight="normal" text-decoration="none" x="600" y="120"></text><text fill="#eeeeee" stroke="none" font-family="Arial" font-size="24px" font-style="normal" font-weight="normal" text-decoration="none" x="600" y="150"></text><text fill="#eeeeee" stroke="none" font-family="Arial" font-size="24px" font-style="normal" font-weight="normal" text-decoration="none" x="600" y="180"></text><text fill="#eeeeee" stroke="none" font-family="Arial" font-size="24px" font-style="normal" font-weight="normal" text-decoration="none" x="600" y="210"></text><text fill="#eeeeee" stroke="none" font-family="Arial" font-size="24px" font-style="normal" font-weight="normal" text-decoration="none" x="600" y="240"></text><text fill="#eeeeee" stroke="none" font-family="Arial" font-size="24px" font-style="normal" font-weight="normal" text-decoration="none" x="600" y="270"></text><text fill="#eeeeee" stroke="none" font-family="Arial" font-size="24px" font-style="normal" font-weight="normal" text-decoration="none" x="600" y="300"></text><text fill="#eeeeee" stroke="none" font-family="Arial" font-size="24px" font-style="normal" font-weight="normal" text-decoration="none" x="600" y="330"></text><text fill="#eeeeee" stroke="none" font-family="Arial" font-size="24px" font-style="normal" font-weight="normal" text-decoration="none" x="600" y="360"></text><text fill="#eeeeee" stroke="none" font-family="Arial" font-size="24px" font-style="normal" font-weight="normal" text-decoration="none" x="600" y="390"></text><text fill="#eeeeee" stroke="none" font-family="Arial" font-size="24px" font-style="normal" font-weight="normal" text-decoration="none" x="600" y="420"></text><text fill="#eeeeee" stroke="none" font-family="Arial" font-size="24px" font-style="normal" font-weight="normal" text-decoration="none" x="600" y="450"></text><text fill="#eeeeee" stroke="none" font-family="Arial" font-size="24px" font-style="normal" font-weight="normal" text-decoration="none" x="600" y="480"></text><g transform="translate(-230,-174) scale(1,1)"><path fill="none" stroke="#000000" d="M 240 184 L 920 184 L 920 647 L 240 647 L 240 184" stroke-miterlimit="10"/></g><g transform="translate(-230,-174) scale(1,1)"><path fill="#ffffff" stroke="none" d="M 240 184 L 240 206 L 416.39892578125 206 L 427.39892578125 195 L 427.39892578125 184 L 240 184"/></g><g transform="translate(-230,-174) scale(1,1)"><path fill="none" stroke="#000000" d="M 240 184 L 240 206 L 416.39892578125 206 L 427.39892578125 195 L 427.39892578125 184 L 240 184 L 240 184" stroke-miterlimit="10"/></g><g transform="translate(-230,-174) scale(1,1)"><g><path fill="none" stroke="none"/><text fill="#000000" stroke="none" font-family="Arial" font-size="13px" font-style="normal" font-weight="normal" text-decoration="none" x="264.72998046875" y="201.5">CommunicationDiagram1</text></g></g><g transform="translate(-230,-174) scale(1,1)"><g><path fill="none" stroke="none"/><text fill="#000000" stroke="none" font-family="Arial" font-size="13px" font-style="normal" font-weight="bold" text-decoration="none" x="245" y="201.5">sd</text></g></g><g transform="translate(-230,-174) scale(1,1)"><rect fill="#C0C0C0" stroke="none" x="279" y="295" width="115.20263671875" height="39" opacity="0.2"/></g><g transform="translate(-230,-174) scale(1,1)"><rect fill="#ffffff" stroke="none" x="272" y="288" width="115.20263671875" height="39"/></g><g transform="translate(-230,-174) scale(1,1)"><path fill="none" stroke="#000000" d="M 272 288 L 387.20263671875 288 L 387.20263671875 327 L 272 327 L 272 288 Z Z" stroke-miterlimit="10"/></g><g transform="translate(-230,-174) scale(1,1)"><rect fill="#ffffff" stroke="none" x="272" y="288" width="115.20263671875" height="39"/></g><g transform="translate(-230,-174) scale(1,1)"><path fill="none" stroke="#000000" d="M 272 288 L 387.20263671875 288 L 387.20263671875 327 L 272 327 L 272 288 Z Z" stroke-miterlimit="10"/></g><g transform="translate(-230,-174) scale(1,1)"><g><path fill="none" stroke="none"/><text fill="#000000" stroke="none" font-family="Arial" font-size="13px" font-style="normal" font-weight="bold" text-decoration="none" x="294.917724609375" y="307.5">Játék: Jatek</text></g></g><g transform="translate(-230,-174) scale(1,1)"><g><path fill="none" stroke="none"/><text fill="#000000" stroke="none" font-family="Arial" font-size="13px" font-style="normal" font-weight="normal" text-decoration="none" x="276.5" y="322.5">(from Interaction1)</text></g></g><g transform="translate(-230,-174) scale(1,1)"><rect fill="#C0C0C0" stroke="none" x="279" y="543" width="115.20263671875" height="39" opacity="0.2"/></g><g transform="translate(-230,-174) scale(1,1)"><rect fill="#ffffff" stroke="none" x="272" y="536" width="115.20263671875" height="39"/></g><g transform="translate(-230,-174) scale(1,1)"><path fill="none" stroke="#000000" d="M 272 536 L 387.20263671875 536 L 387.20263671875 575 L 272 575 L 272 536 Z Z" stroke-miterlimit="10"/></g><g transform="translate(-230,-174) scale(1,1)"><rect fill="#ffffff" stroke="none" x="272" y="536" width="115.20263671875" height="39"/></g><g transform="translate(-230,-174) scale(1,1)"><path fill="none" stroke="#000000" d="M 272 536 L 387.20263671875 536 L 387.20263671875 575 L 272 575 L 272 536 Z Z" stroke-miterlimit="10"/></g><g transform="translate(-230,-174) scale(1,1)"><g><path fill="none" stroke="none"/><text fill="#000000" stroke="none" font-family="Arial" font-size="13px" font-style="normal" font-weight="bold" text-decoration="none" x="291.305908203125" y="555.5">k1: Kontroller</text></g></g><g transform="translate(-230,-174) scale(1,1)"><g><path fill="none" stroke="none"/><text fill="#000000" stroke="none" font-family="Arial" font-size="13px" font-style="normal" font-weight="normal" text-decoration="none" x="276.5" y="570.5">(from Interaction1)</text></g></g><g transform="translate(-230,-174) scale(1,1)"><rect fill="#C0C0C0" stroke="none" x="783" y="543" width="115.20263671875" height="39" opacity="0.2"/></g><g transform="translate(-230,-174) scale(1,1)"><rect fill="#ffffff" stroke="none" x="776" y="536" width="115.20263671875" height="39"/></g><g transform="translate(-230,-174) scale(1,1)"><path fill="none" stroke="#000000" d="M 776 536 L 891.20263671875 536 L 891.20263671875 575 L 776 575 L 776 536 Z Z" stroke-miterlimit="10"/></g><g transform="translate(-230,-174) scale(1,1)"><rect fill="#ffffff" stroke="none" x="776" y="536" width="115.20263671875" height="39"/></g><g transform="translate(-230,-174) scale(1,1)"><path fill="none" stroke="#000000" d="M 776 536 L 891.20263671875 536 L 891.20263671875 575 L 776 575 L 776 536 Z Z" stroke-miterlimit="10"/></g><g transform="translate(-230,-174) scale(1,1)"><g><path fill="none" stroke="none"/><text fill="#000000" stroke="none" font-family="Arial" font-size="13px" font-style="normal" font-weight="bold" text-decoration="none" x="794.69970703125" y="555.5">v_i: Virologus</text></g></g><g transform="translate(-230,-174) scale(1,1)"><g><path fill="none" stroke="none"/><text fill="#000000" stroke="none" font-family="Arial" font-size="13px" font-style="normal" font-weight="normal" text-decoration="none" x="780.5" y="570.5">(from Interaction1)</text></g></g><g transform="translate(-230,-174) scale(1,1)"><rect fill="#C0C0C0" stroke="none" x="751" y="295" width="130.84326171875" height="39" opacity="0.2"/></g><g transform="translate(-230,-174) scale(1,1)"><rect fill="#ffffff" stroke="none" x="744" y="288" width="130.84326171875" height="39"/></g><g transform="translate(-230,-174) scale(1,1)"><path fill="none" stroke="#000000" d="M 744 288 L 874.84326171875 288 L 874.84326171875 327 L 744 327 L 744 288 Z Z" stroke-miterlimit="10"/></g><g transform="translate(-230,-174) scale(1,1)"><rect fill="#ffffff" stroke="none" x="744" y="288" width="130.84326171875" height="39"/></g><g transform="translate(-230,-174) scale(1,1)"><path fill="none" stroke="#000000" d="M 744 288 L 874.84326171875 288 L 874.84326171875 327 L 744 327 L 744 288 Z Z" stroke-miterlimit="10"/></g><g transform="translate(-230,-174) scale(1,1)"><g><path fill="none" stroke="none"/><text fill="#000000" stroke="none" font-family="Arial" font-size="13px" font-style="normal" font-weight="bold" text-decoration="none" x="753.3115234375" y="307.5">Játék.idozito: Timer</text></g></g><g transform="translate(-230,-174) scale(1,1)"><g><path fill="none" stroke="none"/><text fill="#000000" stroke="none" font-family="Arial" font-size="13px" font-style="normal" font-weight="normal" text-decoration="none" x="756.3203125" y="322.5">(from Interaction1)</text></g></g><g transform="translate(-230,-174) scale(1,1)"><path fill="none" stroke="#000000" d="M 388 555 L 775 555" stroke-miterlimit="10"/></g><g transform="translate(-230,-174) scale(1,1)"><path fill="none" stroke="#000000" d="M 601 545 L 561 545" stroke-miterlimit="10"/></g><g transform="translate(-230,-174) scale(1,1)"><path fill="none" stroke="#000000" d="M 589 549 L 601 545 L 589 540" stroke-miterlimit="10"/></g><g transform="translate(-230,-174) scale(1,1)"><g><path fill="none" stroke="none"/><text fill="#000000" stroke="none" font-family="Arial" font-size="13px" font-style="normal" font-weight="normal" text-decoration="none" x="556.158203125" y="540.5">1 : (név)</text></g></g><g transform="translate(-230,-174) scale(1,1)"><g><path fill="none" stroke="none"/><text fill="#000000" stroke="none" font-family="Arial" font-size="13px" font-style="normal" font-weight="normal" text-decoration="none" x="554.70458984375" y="525.5">«create»</text></g></g><g transform="translate(-230,-174) scale(1,1)"><path fill="none" stroke="#000000" d="M 329 535 L 329 328" stroke-miterlimit="10"/></g><g transform="translate(-230,-174) scale(1,1)"><path fill="none" stroke="#000000" d="M 319 410 L 319 450" stroke-miterlimit="10"/></g><g transform="translate(-230,-174) scale(1,1)"><path fill="#000000" stroke="none" d="M 323 421 L 319 410 L 314 421"/></g><g transform="translate(-230,-174) scale(1,1)"><g><path fill="none" stroke="none"/><text fill="#000000" stroke="none" font-family="Arial" font-size="13px" font-style="normal" font-weight="normal" text-decoration="none" x="327.451416015625" y="475.5">2 : init(virologusok)</text></g></g><g transform="translate(-230,-174) scale(1,1)"><path fill="none" stroke="#000000" d="M 388 307 L 743 307" stroke-miterlimit="10"/></g><g transform="translate(-230,-174) scale(1,1)"><path fill="none" stroke="#000000" d="M 585 297 L 545 297" stroke-miterlimit="10"/></g><g transform="translate(-230,-174) scale(1,1)"><path fill="none" stroke="#000000" d="M 573 301 L 585 297 L 573 292" stroke-miterlimit="10"/></g><g transform="translate(-230,-174) scale(1,1)"><g><path fill="none" stroke="none"/><text fill="#000000" stroke="none" font-family="Arial" font-size="13px" font-style="normal" font-weight="normal" text-decoration="none" x="554.96728515625" y="292.5">3 : </text></g></g><g transform="translate(-230,-174) scale(1,1)"><g><path fill="none" stroke="none"/><text fill="#000000" stroke="none" font-family="Arial" font-size="13px" font-style="normal" font-weight="normal" text-decoration="none" x="566.70458984375" y="284.5">«create»</text></g></g><g transform="translate(-230,-174) scale(1,1)"><path fill="none" stroke="#000000" d="M 329 288 L 329 267 L 416 267 L 416 307 L 387 307" stroke-miterlimit="10"/></g><g transform="translate(-230,-174) scale(1,1)"><path fill="none" stroke="#000000" d="M 425 286 L 425 246" stroke-miterlimit="10"/></g><g transform="translate(-230,-174) scale(1,1)"><path fill="#000000" stroke="none" d="M 420 274 L 425 286 L 429 274"/></g><g transform="translate(-230,-174) scale(1,1)"><g><path fill="none" stroke="none"/><text fill="#000000" stroke="none" font-family="Arial" font-size="13px" font-style="normal" font-weight="normal" text-decoration="none" x="362.208740234375" y="261.5">4 : pálya_létrehozása</text></g></g><g transform="translate(-230,-174) scale(1,1)"><path fill="none" stroke="#000000" d="M 329 288 L 329 267 L 416 267 L 416 307 L 387 307" stroke-miterlimit="10"/></g><g transform="translate(-230,-174) scale(1,1)"><path fill="none" stroke="#000000" d="M 425 286 L 425 246" stroke-miterlimit="10" stroke-dasharray="3"/></g><g transform="translate(-230,-174) scale(1,1)"><path fill="none" stroke="#000000" d="M 420 274 L 425 286 L 429 274" stroke-miterlimit="10"/></g><g transform="translate(-230,-174) scale(1,1)"><g><path fill="none" stroke="none"/><text fill="#000000" stroke="none" font-family="Arial" font-size="13px" font-style="normal" font-weight="normal" text-decoration="none" x="446.96728515625" y="261.5">5 : </text></g></g><g transform="translate(-230,-174) scale(1,1)"><path fill="none" stroke="#000000" d="M 388 307 L 743 307" stroke-miterlimit="10"/></g><g transform="translate(-230,-174) scale(1,1)"><path fill="none" stroke="#000000" d="M 585 297 L 545 297" stroke-miterlimit="10"/></g><g transform="translate(-230,-174) scale(1,1)"><path fill="#000000" stroke="none" d="M 573 301 L 585 297 L 573 292"/></g><g transform="translate(-230,-174) scale(1,1)"><g><path fill="none" stroke="none"/><text fill="#000000" stroke="none" font-family="Arial" font-size="13px" font-style="normal" font-weight="normal" text-decoration="none" x="503.16552734375" y="340.5">6 : addListener(l_i)</text></g></g><g transform="translate(-230,-174) scale(1,1)"><path fill="none" stroke="#000000" d="M 743 307 L 388 307" stroke-miterlimit="10"/></g><g transform="translate(-230,-174) scale(1,1)"><path fill="none" stroke="#000000" d="M 544 317 L 584 317" stroke-miterlimit="10" stroke-dasharray="3"/></g><g transform="translate(-230,-174) scale(1,1)"><path fill="none" stroke="#000000" d="M 555 312 L 544 317 L 555 321" stroke-miterlimit="10"/></g><g transform="translate(-230,-174) scale(1,1)"><g><path fill="none" stroke="none"/><text fill="#000000" stroke="none" font-family="Arial" font-size="13px" font-style="normal" font-weight="normal" text-decoration="none" x="553.96728515625" y="312.5">7 : </text></g></g><g transform="translate(-230,-174) scale(1,1)"><path fill="none" stroke="#000000" d="M 329 328 L 329 535" stroke-miterlimit="10"/></g><g transform="translate(-230,-174) scale(1,1)"><path fill="none" stroke="#000000" d="M 339 450 L 339 410" stroke-miterlimit="10" stroke-dasharray="3"/></g><g transform="translate(-230,-174) scale(1,1)"><path fill="none" stroke="#000000" d="M 334 438 L 339 450 L 343 438" stroke-miterlimit="10"/></g><g transform="translate(-230,-174) scale(1,1)"><g><path fill="none" stroke="none"/><text fill="#000000" stroke="none" font-family="Arial" font-size="13px" font-style="normal" font-weight="normal" text-decoration="none" x="328.96728515625" y="425.5">8 : </text></g></g></g></svg>